<mxfile host="app.diagrams.net" modified="2021-07-27T21:13:14.169Z" agent="5.0 (Windows NT 10.0; Win64; x64) AppleWebKit/537.36 (KHTML, like Gecko) Chrome/92.0.4515.107 Safari/537.36" etag="4966yfPx14dly-WoDziZ" version="14.9.2" type="github">
  <diagram id="5Vw8lEADLM701qHRzyul" name="Page-1">
    <mxGraphModel dx="703" dy="413" grid="1" gridSize="10" guides="1" tooltips="1" connect="1" arrows="1" fold="1" page="1" pageScale="1" pageWidth="827" pageHeight="1169" math="0" shadow="0">
      <root>
        <mxCell id="0" />
        <mxCell id="1" parent="0" />
        <mxCell id="OXgOo7KW0jeFq5yCFP7A-11" value="Monitor&lt;br&gt;" style="shape=umlActor;verticalLabelPosition=bottom;verticalAlign=top;html=1;outlineConnect=0;fontFamily=Helvetica;" vertex="1" parent="1">
          <mxGeometry x="30" y="430" width="30" height="60" as="geometry" />
        </mxCell>
        <mxCell id="OXgOo7KW0jeFq5yCFP7A-12" value="Aluno&lt;br&gt;" style="shape=umlActor;verticalLabelPosition=bottom;verticalAlign=top;html=1;outlineConnect=0;fontFamily=Helvetica;" vertex="1" parent="1">
          <mxGeometry x="30" y="330" width="30" height="60" as="geometry" />
        </mxCell>
        <mxCell id="OXgOo7KW0jeFq5yCFP7A-13" value="Orientador&lt;br&gt;" style="shape=umlActor;verticalLabelPosition=bottom;verticalAlign=top;html=1;outlineConnect=0;" vertex="1" parent="1">
          <mxGeometry x="30" y="230" width="30" height="60" as="geometry" />
        </mxCell>
        <mxCell id="OXgOo7KW0jeFq5yCFP7A-14" value="Apresentar as pendÃªncias" style="ellipse;whiteSpace=wrap;html=1;" vertex="1" parent="1">
          <mxGeometry x="120" y="330" width="120" height="80" as="geometry" />
        </mxCell>
        <mxCell id="OXgOo7KW0jeFq5yCFP7A-15" value="" style="endArrow=none;html=1;exitX=0;exitY=0;exitDx=0;exitDy=0;" edge="1" parent="1" source="OXgOo7KW0jeFq5yCFP7A-14">
          <mxGeometry width="50" height="50" relative="1" as="geometry">
            <mxPoint x="180" y="330" as="sourcePoint" />
            <mxPoint x="80" y="270" as="targetPoint" />
          </mxGeometry>
        </mxCell>
        <mxCell id="OXgOo7KW0jeFq5yCFP7A-16" value="" style="endArrow=none;html=1;exitX=0;exitY=0.5;exitDx=0;exitDy=0;" edge="1" parent="1" source="OXgOo7KW0jeFq5yCFP7A-14">
          <mxGeometry width="50" height="50" relative="1" as="geometry">
            <mxPoint x="160" y="370" as="sourcePoint" />
            <mxPoint x="80" y="370" as="targetPoint" />
          </mxGeometry>
        </mxCell>
        <mxCell id="OXgOo7KW0jeFq5yCFP7A-17" value="" style="endArrow=none;html=1;exitX=0;exitY=1;exitDx=0;exitDy=0;" edge="1" parent="1" source="OXgOo7KW0jeFq5yCFP7A-14">
          <mxGeometry width="50" height="50" relative="1" as="geometry">
            <mxPoint x="200" y="350" as="sourcePoint" />
            <mxPoint x="80" y="470" as="targetPoint" />
          </mxGeometry>
        </mxCell>
        <mxCell id="OXgOo7KW0jeFq5yCFP7A-18" value="Apresenta registros a serem aprovados" style="ellipse;whiteSpace=wrap;html=1;" vertex="1" parent="1">
          <mxGeometry x="330" y="190" width="120" height="80" as="geometry" />
        </mxCell>
        <mxCell id="OXgOo7KW0jeFq5yCFP7A-19" value="" style="endArrow=none;html=1;strokeWidth=1;entryX=0;entryY=0.5;entryDx=0;entryDy=0;dashed=1;startArrow=open;startFill=0;exitX=1;exitY=0;exitDx=0;exitDy=0;" edge="1" parent="1" source="OXgOo7KW0jeFq5yCFP7A-14" target="OXgOo7KW0jeFq5yCFP7A-18">
          <mxGeometry width="50" height="50" relative="1" as="geometry">
            <mxPoint x="240" y="370" as="sourcePoint" />
            <mxPoint x="260" y="320" as="targetPoint" />
          </mxGeometry>
        </mxCell>
        <mxCell id="OXgOo7KW0jeFq5yCFP7A-20" value="Apresenta atendimentos futuros" style="ellipse;whiteSpace=wrap;html=1;" vertex="1" parent="1">
          <mxGeometry x="330" y="327.5" width="120" height="85" as="geometry" />
        </mxCell>
        <mxCell id="OXgOo7KW0jeFq5yCFP7A-21" value="" style="endArrow=none;html=1;strokeWidth=1;entryX=0;entryY=0.5;entryDx=0;entryDy=0;dashed=1;startArrow=open;startFill=0;exitX=1;exitY=0.5;exitDx=0;exitDy=0;" edge="1" parent="1" source="OXgOo7KW0jeFq5yCFP7A-14" target="OXgOo7KW0jeFq5yCFP7A-20">
          <mxGeometry width="50" height="50" relative="1" as="geometry">
            <mxPoint x="250" y="410" as="sourcePoint" />
            <mxPoint x="370" y="280" as="targetPoint" />
          </mxGeometry>
        </mxCell>
        <mxCell id="OXgOo7KW0jeFq5yCFP7A-22" value="&amp;lt;&amp;lt;extend&amp;gt;&amp;gt;&lt;br&gt;Se agendaram algum atendimento previamente" style="text;html=1;strokeColor=none;fillColor=none;align=center;verticalAlign=middle;whiteSpace=wrap;rounded=0;" vertex="1" parent="1">
          <mxGeometry x="240" y="340" width="97" height="20" as="geometry" />
        </mxCell>
        <mxCell id="OXgOo7KW0jeFq5yCFP7A-27" value="&amp;lt;&amp;lt;extend&amp;gt;&amp;gt;&lt;br&gt;Se existe algum cadastro a ser aprovado" style="text;html=1;strokeColor=none;fillColor=none;align=center;verticalAlign=middle;whiteSpace=wrap;rounded=0;" vertex="1" parent="1">
          <mxGeometry x="220" y="260" width="97" height="20" as="geometry" />
        </mxCell>
        <mxCell id="OXgOo7KW0jeFq5yCFP7A-28" value="&amp;lt;&amp;lt;extend&amp;gt;&amp;gt;&lt;br&gt;Se realizou algum agendamento previamente" style="text;html=1;strokeColor=none;fillColor=none;align=center;verticalAlign=middle;whiteSpace=wrap;rounded=0;" vertex="1" parent="1">
          <mxGeometry x="220" y="440" width="100" height="20" as="geometry" />
        </mxCell>
        <mxCell id="OXgOo7KW0jeFq5yCFP7A-29" value="&lt;span&gt;Apresenta os agendamentos futuros&lt;/span&gt;" style="ellipse;whiteSpace=wrap;html=1;" vertex="1" parent="1">
          <mxGeometry x="330" y="445" width="120" height="85" as="geometry" />
        </mxCell>
        <mxCell id="OXgOo7KW0jeFq5yCFP7A-30" value="" style="endArrow=none;html=1;strokeWidth=1;entryX=0;entryY=0.5;entryDx=0;entryDy=0;dashed=1;startArrow=open;startFill=0;exitX=1;exitY=1;exitDx=0;exitDy=0;" edge="1" parent="1" source="OXgOo7KW0jeFq5yCFP7A-14" target="OXgOo7KW0jeFq5yCFP7A-29">
          <mxGeometry width="50" height="50" relative="1" as="geometry">
            <mxPoint x="250" y="380" as="sourcePoint" />
            <mxPoint x="340" y="380" as="targetPoint" />
          </mxGeometry>
        </mxCell>
      </root>
    </mxGraphModel>
  </diagram>
</mxfile>
